<?xml version="1.0" standalone="no"?>
<!DOCTYPE svg PUBLIC "-//W3C//DTD SVG 20010904//EN"
 "http://www.w3.org/TR/2001/REC-SVG-20010904/DTD/svg10.dtd">
<svg version="1.0" xmlns="http://www.w3.org/2000/svg"
 width="1280.000000pt" height="1280.000000pt" viewBox="0 0 1280.000000 1280.000000"
 preserveAspectRatio="xMidYMid meet">
<g transform="translate(0.000000,1280.000000) scale(0.100000,-0.100000)"
fill="#000000" stroke="none">
<path d="M6210 12797 c-3 -3 -81 -10 -175 -16 -1138 -75 -2150 -403 -3085
-1000 -388 -248 -710 -510 -1066 -865 -262 -263 -447 -476 -632 -727 -711
-970 -1135 -2112 -1222 -3289 -6 -80 -15 -192 -20 -250 -13 -134 -13 -366 0
-500 5 -58 14 -170 20 -250 103 -1394 677 -2727 1626 -3780 845 -937 1957
-1608 3176 -1916 353 -89 715 -147 1073 -174 83 -6 194 -15 248 -21 125 -12
369 -12 494 0 54 6 166 15 248 21 1069 79 2103 432 3010 1028 828 543 1516
1269 2025 2137 96 164 274 518 348 693 274 647 441 1331 492 2012 6 80 15 192
20 250 13 134 13 366 0 500 -5 58 -14 170 -20 250 -80 1078 -444 2131 -1051
3042 -664 996 -1611 1799 -2699 2288 -608 274 -1279 455 -1940 524 -305 32
-854 59 -870 43z m510 -547 c844 -52 1587 -251 2320 -621 1385 -698 2438
-1921 2925 -3396 143 -431 232 -875 277 -1373 16 -183 16 -741 0 -920 -73
-798 -264 -1485 -601 -2159 -856 -1708 -2493 -2896 -4376 -3175 -318 -47 -504
-60 -865 -60 -454 0 -747 29 -1170 114 -2053 416 -3735 1911 -4396 3908 -411
1244 -386 2639 69 3862 679 1825 2208 3192 4092 3659 551 136 1175 194 1725
161z"/>
<path d="M2718 9201 c-31 -10 -76 -30 -100 -44 -65 -38 -145 -128 -181 -204
l-32 -68 0 -2196 0 -2195 37 -75 c48 -98 119 -169 217 -217 l75 -37 3666 0
3666 0 75 37 c96 48 169 120 217 217 l37 75 0 2195 0 2196 -32 68 c-36 76
-116 166 -181 204 -23 14 -70 34 -103 44 -59 18 -162 19 -3682 18 -3477 0
-3624 -1 -3679 -18z m7332 -251 c49 -28 84 -73 100 -129 14 -53 14 -4212 -1
-4266 -15 -55 -52 -101 -102 -128 l-42 -22 -3605 0 -3605 0 -42 22 c-50 27
-87 73 -102 128 -15 54 -15 4213 -1 4266 22 79 81 134 159 150 20 4 1647 6
3616 5 l3580 -1 45 -25z"/>
<path d="M1976 4008 c21 -176 121 -326 264 -396 l55 -27 4105 0 4105 0 55 27
c72 36 128 84 174 150 43 64 83 173 88 243 l3 50 -4428 3 -4428 2 7 -52z"/>
</g>
</svg>
